<svg width="27" height="32" viewBox="0 0 27 32" fill="none" xmlns="http://www.w3.org/2000/svg">
<path d="M22.0141 16.9587C21.9773 12.93 25.3652 10.97 25.5201 10.8787C23.6014 8.125 20.6274 7.74875 19.5823 7.71875C17.0846 7.46 14.6617 9.19 13.3893 9.19C12.0916 9.19 10.1322 7.74375 8.02044 7.78625C5.30298 7.8275 2.76076 9.37625 1.36647 11.7812C-1.51099 16.685 0.635042 23.8912 3.39187 27.855C4.77092 29.7962 6.38234 31.9637 8.49155 31.8875C10.555 31.8037 11.3258 30.5925 13.816 30.5925C16.2833 30.5925 17.0071 31.8875 19.1582 31.8387C21.3728 31.8037 22.7671 29.8887 24.0979 27.93C25.6916 25.705 26.3316 23.5137 26.357 23.4012C26.3049 23.3837 22.056 21.7875 22.0141 16.9587Z" fill="white"/>
<path d="M17.9506 5.11125C19.0604 3.745 19.8198 1.88625 19.609 0C18.0027 0.07 15.9938 1.09375 14.8369 2.43C13.8135 3.6075 12.8992 5.5375 13.1354 7.3525C14.9398 7.485 16.7925 6.45625 17.9506 5.11125Z" fill="white"/>
</svg>
