<svg width="358" height="238" viewBox="0 0 358 238" fill="none" xmlns="http://www.w3.org/2000/svg">
<path d="M355.834 134.007C353.162 104.015 348.761 98.1742 347.098 95.9773C343.276 90.9008 337.16 87.5832 330.688 84.1023C330.322 83.9088 330.006 83.6329 329.765 83.2963C329.524 82.9598 329.364 82.5718 329.299 82.163C329.233 81.7542 329.264 81.3358 329.388 80.9408C329.512 80.5457 329.726 80.1849 330.013 79.8867C331.211 78.6712 332.133 77.2106 332.713 75.6053C333.293 74 333.519 72.288 333.375 70.5871C333.096 67.5709 331.693 64.7698 329.446 62.7393C327.198 60.7088 324.269 59.5972 321.24 59.625H309.662C309.166 59.6279 308.67 59.6602 308.178 59.7215C307.84 59.5749 307.49 59.4582 307.131 59.3727C300.273 44.8777 290.885 25.0316 271.425 15.3461C242.561 0.992185 189.391 0.25 179 0.25C168.609 0.25 115.439 0.992186 86.6125 15.3238C67.1523 25.0094 57.7637 44.8555 50.9058 59.3504L50.8465 59.4691C50.5044 59.5173 50.1685 59.6019 49.8445 59.7215C49.352 59.6602 48.8564 59.6279 48.3601 59.625H36.7597C33.7308 59.5972 30.8021 60.7088 28.5543 62.7393C26.3066 64.7698 24.9041 67.5709 24.625 70.5871C24.4931 72.2841 24.7293 73.9895 25.3172 75.5868C25.9052 77.1841 26.8311 78.6357 28.0316 79.8422C28.3188 80.1404 28.5328 80.5012 28.6567 80.8962C28.7806 81.2913 28.811 81.7097 28.7455 82.1185C28.68 82.5273 28.5204 82.9153 28.2793 83.2518C28.0382 83.5884 27.7222 83.8643 27.3562 84.0578C20.8843 87.5609 14.739 90.8785 10.9465 95.9328C9.28396 98.1594 4.89021 103.971 2.21091 133.963C0.726538 150.84 0.503882 168.311 1.66912 179.562C4.11091 202.941 8.69021 217.073 8.88318 217.659C9.58587 219.793 10.8794 221.683 12.6135 223.111C14.3476 224.539 16.4512 225.446 18.6801 225.727V225.875C18.6801 229.024 19.9312 232.045 22.1582 234.272C24.3852 236.499 27.4056 237.75 30.5551 237.75H72.1176C75.267 237.75 78.2875 236.499 80.5145 234.272C82.7414 232.045 83.9926 229.024 83.9926 225.875C90.3828 225.875 94.8285 224.732 99.5414 223.515C106.346 221.681 113.301 220.462 120.323 219.871C142.967 217.711 165.485 216.969 179 216.969C192.241 216.969 215.753 217.711 238.434 219.871C245.484 220.463 252.467 221.688 259.297 223.53C263.81 224.688 268.092 225.756 274.022 225.868C274.022 229.017 275.273 232.037 277.5 234.264C279.727 236.491 282.748 237.743 285.897 237.743H327.46C330.609 237.743 333.63 236.491 335.857 234.264C338.084 232.037 339.335 229.017 339.335 225.868V225.779C341.569 225.503 343.679 224.599 345.419 223.171C347.158 221.742 348.456 219.849 349.161 217.711C349.354 217.125 353.934 202.993 356.375 179.614C357.541 168.355 357.333 150.914 355.834 134.007ZM72.3699 69.5035C78.3074 56.8863 85.0984 42.6066 97.1887 36.5875C114.66 27.8891 150.871 23.9703 179 23.9703C207.129 23.9703 243.34 27.8594 260.811 36.5875C272.902 42.6066 279.663 56.8937 285.63 69.5035L286.372 71.1141C286.806 72.0309 286.998 73.0437 286.93 74.0558C286.861 75.0679 286.534 76.0455 285.98 76.8954C285.427 77.7454 284.665 78.4393 283.766 78.911C282.868 79.3826 281.864 79.6164 280.85 79.5898C256.187 78.9219 204.234 76.7844 179 76.7844C153.766 76.7844 101.812 78.9738 77.1125 79.6418C76.0984 79.6683 75.0945 79.4346 74.1964 78.9629C73.2983 78.4912 72.5361 77.7973 71.9824 76.9474C71.4286 76.0975 71.1019 75.1198 71.0333 74.1077C70.9647 73.0957 71.1566 72.0829 71.5906 71.166C71.8504 70.6168 72.125 70.0602 72.3699 69.5035ZM81.2242 128.604C68.4571 130.141 55.6084 130.899 42.7492 130.875C34.882 130.875 26.7699 128.648 25.2633 121.642C24.2316 116.929 24.3429 114.28 24.8996 111.615C25.3672 109.352 26.1094 107.704 29.8203 107.125C39.4687 105.641 44.8644 107.504 60.6582 112.157C71.1304 115.237 78.6859 119.341 82.9906 122.592C85.1504 124.195 84 128.381 81.2242 128.604ZM245.53 189.463C235.762 190.577 216.228 190.168 179.223 190.168C142.217 190.168 122.69 190.577 112.923 189.463C102.844 188.343 89.9968 178.813 98.7695 170.322C104.611 164.726 118.237 160.54 136.384 158.187C154.53 155.835 162.212 154.625 179.148 154.625C196.085 154.625 202.987 155.367 221.913 158.195C240.839 161.023 255.141 165.261 259.527 170.33C267.528 179.414 255.601 188.283 245.53 189.508V189.463ZM332.737 121.635C331.252 128.671 323.088 130.868 315.251 130.868C302.145 130.871 289.051 130.112 276.034 128.596C273.762 128.381 272.709 124.396 275.009 122.585C279.247 119.252 286.884 115.23 297.342 112.15C313.136 107.496 322.242 105.633 330.065 107.184C331.972 107.563 332.982 109.611 333.1 110.895C333.624 114.47 333.501 118.111 332.737 121.642V121.635Z" fill="black" fill-opacity="0.2"/>
</svg>
