<svg width="72" height="68" viewBox="0 0 72 68" fill="none" xmlns="http://www.w3.org/2000/svg">
<rect width="72" height="68" rx="12" fill="#FF9E0C"/>
<path d="M51 30.25H52.25C52.94 30.25 53.5 29.69 53.5 29C53.5 28.31 52.94 27.75 52.25 27.75H49.2075L47.2775 24.5338C46.155 22.6625 44.1013 21.5 41.9188 21.5H30.0813C27.8988 21.5 25.845 22.6625 24.7225 24.5338L22.7925 27.75H19.75C19.06 27.75 18.5 28.31 18.5 29C18.5 29.69 19.06 30.25 19.75 30.25H21L20.25 31.25C19.1213 32.755 18.5 34.6187 18.5 36.5V42.75C18.5 44.8175 20.1825 46.5 22.25 46.5H24.75C26.8175 46.5 28.5 44.8175 28.5 42.75H43.5C43.5 44.8175 45.1825 46.5 47.25 46.5H49.75C51.8175 46.5 53.5 44.8175 53.5 42.75V36.5C53.5 34.6187 52.8787 32.7537 51.75 31.25L51 30.25ZM26.8663 25.8212C27.54 24.6987 28.7713 24 30.0813 24H41.92C43.23 24 44.4613 24.6975 45.135 25.8212L46.815 28.6212L45.9463 29.2C44.9163 29.8862 43.7175 30.25 42.4788 30.25H29.52C28.2825 30.25 27.0838 29.8875 26.0538 29.2013L25.185 28.6212L26.865 25.82L26.8663 25.8212ZM51.0013 42.75C51.0013 43.4387 50.44 44 49.7512 44H47.2512C46.5625 44 46.0012 43.4387 46.0012 42.75V41.5C46.0012 40.81 45.4412 40.25 44.7512 40.25H27.25C26.56 40.25 26 40.81 26 41.5V42.75C26 43.4387 25.4387 44 24.75 44H22.25C21.5612 44 21 43.4387 21 42.75V36.5C21 35.1562 21.4437 33.8238 22.25 32.75L23.79 30.6963L24.6675 31.2812C26.11 32.2425 27.7875 32.75 29.52 32.75H42.4788C44.2125 32.75 45.89 32.2413 47.3325 31.28L48.2087 30.6963L49.7488 32.75C50.555 33.8238 50.9987 35.1562 50.9987 36.5V42.75H51.0013Z" fill="white"/>
<path d="M47.25 37.75C47.9404 37.75 48.5 37.1904 48.5 36.5C48.5 35.8096 47.9404 35.25 47.25 35.25C46.5596 35.25 46 35.8096 46 36.5C46 37.1904 46.5596 37.75 47.25 37.75Z" fill="white"/>
<path d="M24.75 37.75C25.4404 37.75 26 37.1904 26 36.5C26 35.8096 25.4404 35.25 24.75 35.25C24.0596 35.25 23.5 35.8096 23.5 36.5C23.5 37.1904 24.0596 37.75 24.75 37.75Z" fill="white"/>
</svg>
