<svg width="174" height="50" viewBox="0 0 174 50" fill="none" xmlns="http://www.w3.org/2000/svg">
<path d="M172.116 44.2337C172.116 46.8982 169.912 49.0566 167.187 49.0566H5.89694C3.17297 49.0566 0.961914 46.8982 0.961914 44.2337V5.77256C0.961914 3.10926 3.17297 0.943359 5.89694 0.943359H167.186C169.912 0.943359 172.114 3.10926 172.114 5.77256L172.116 44.2337Z" fill="black"/>
<path d="M166.667 1.00156C169.635 1.00156 172.05 3.35625 172.05 6.25V43.75C172.05 46.6438 169.635 48.9984 166.667 48.9984H6.41026C3.44231 48.9984 1.02724 46.6438 1.02724 43.75V6.25C1.02724 3.35625 3.44231 1.00156 6.41026 1.00156H166.667ZM166.667 3.8147e-06H6.41026C2.88622 3.8147e-06 0 2.81407 0 6.25V43.75C0 47.1859 2.88622 50 6.41026 50H166.667C170.191 50 173.077 47.1859 173.077 43.75V6.25C173.077 2.81407 170.191 3.8147e-06 166.667 3.8147e-06Z" fill="#A6A6A6"/>
<path d="M38.6252 24.73C38.588 20.7012 42.0085 18.7412 42.1649 18.65C40.2277 15.8962 37.2252 15.52 36.17 15.49C33.6483 15.2312 31.2021 16.9612 29.9175 16.9612C28.6072 16.9612 26.629 15.515 24.497 15.5575C21.7534 15.5987 19.1867 17.1475 17.779 19.5525C14.8739 24.4562 17.0406 31.6625 19.8239 35.6262C21.2162 37.5675 22.8431 39.735 24.9726 39.6587C27.0559 39.575 27.8342 38.3637 30.3483 38.3637C32.8393 38.3637 33.57 39.6587 35.7418 39.61C37.9777 39.575 39.3854 37.66 40.729 35.7012C42.338 33.4762 42.9842 31.285 43.0098 31.1725C42.9572 31.155 38.6675 29.5587 38.6252 24.73Z" fill="white"/>
<path d="M34.5226 12.8825C35.6431 11.5162 36.4098 9.65749 36.197 7.77124C34.5752 7.84124 32.547 8.86499 31.379 10.2012C30.3457 11.3787 29.4226 13.3087 29.6611 15.1237C31.4829 15.2562 33.3534 14.2275 34.5226 12.8825Z" fill="white"/>
<path d="M62.8849 12.5112C62.8849 13.9825 62.4323 15.09 61.5285 15.8337C60.6913 16.52 59.5015 16.8637 57.9605 16.8637C57.1964 16.8637 56.5426 16.8312 55.9951 16.7662V8.72749C56.7092 8.61499 57.4785 8.5575 58.3092 8.5575C59.7772 8.5575 60.8836 8.86874 61.6297 9.49124C62.4656 10.195 62.8849 11.2012 62.8849 12.5112ZM61.4682 12.5475C61.4682 11.5937 61.2092 10.8625 60.6913 10.3525C60.1733 9.84374 59.4169 9.58875 58.4208 9.58875C57.9977 9.58875 57.6374 9.61624 57.3387 9.67374V15.785C57.5041 15.81 57.8067 15.8212 58.2464 15.8212C59.2746 15.8212 60.0682 15.5425 60.6272 14.985C61.1861 14.4275 61.4682 13.615 61.4682 12.5475Z" fill="white"/>
<path d="M70.3968 13.7962C70.3968 14.7024 70.1314 15.4449 69.6006 16.0274C69.0442 16.6262 68.307 16.9249 67.3865 16.9249C66.4993 16.9249 65.7929 16.6387 65.266 16.0637C64.7404 15.4899 64.4775 14.7662 64.4775 13.8937C64.4775 12.9812 64.748 12.2324 65.2916 11.6512C65.8352 11.0699 66.566 10.7787 67.4865 10.7787C68.3737 10.7787 69.0865 11.0649 69.6263 11.6387C70.1391 12.1962 70.3968 12.9162 70.3968 13.7962ZM69.0032 13.8387C69.0032 13.2949 68.8827 12.8287 68.6429 12.4399C68.3609 11.9699 67.9596 11.7349 67.4378 11.7349C66.8981 11.7349 66.4878 11.9699 66.2057 12.4399C65.9647 12.8287 65.8455 13.3024 65.8455 13.8624C65.8455 14.4062 65.966 14.8724 66.2057 15.2612C66.4968 15.7312 66.9019 15.9662 67.425 15.9662C67.9378 15.9662 68.3404 15.7274 68.6301 15.2487C68.8788 14.8524 69.0032 14.3824 69.0032 13.8387Z" fill="white"/>
<path d="M80.4683 10.8987L78.5773 16.7912H77.3465L76.5632 14.2324C76.3645 13.5937 76.2029 12.9587 76.0773 12.3287H76.0529C75.9363 12.9762 75.7747 13.6099 75.567 14.2324L74.735 16.7912H73.4901L71.7119 10.8987H73.0927L73.776 13.6999C73.9414 14.3624 74.0773 14.9937 74.1863 15.5912H74.2106C74.3106 15.0987 74.476 14.4712 74.7093 13.7124L75.567 10.8999H76.6619L77.4837 13.6524C77.6824 14.3237 77.844 14.9699 77.9683 15.5924H78.0055C78.0965 14.9862 78.2337 14.3399 78.4158 13.6524L79.1491 10.8999H80.4683V10.8987Z" fill="white"/>
<path d="M87.4332 16.7912H86.0896V13.4162C86.0896 12.3762 85.6844 11.8562 84.8716 11.8562C84.4729 11.8562 84.1511 11.9987 83.9011 12.2849C83.6537 12.5712 83.528 12.9087 83.528 13.2949V16.7899H82.1845V12.5824C82.1845 12.0649 82.1678 11.5037 82.1357 10.8962H83.3165L83.3793 11.8174H83.4165C83.5729 11.5312 83.8063 11.2949 84.1127 11.1062C84.4768 10.8862 84.8844 10.7749 85.3306 10.7749C85.8947 10.7749 86.3639 10.9524 86.737 11.3087C87.2011 11.7449 87.4332 12.3962 87.4332 13.2612V16.7912Z" fill="white"/>
<path d="M91.1392 16.7912H89.7969V8.19495H91.1392V16.7912Z" fill="white"/>
<path d="M99.0491 13.7962C99.0491 14.7024 98.7837 15.4449 98.253 16.0274C97.6966 16.6262 96.9581 16.9249 96.0389 16.9249C95.1504 16.9249 94.444 16.6387 93.9183 16.0637C93.3927 15.4899 93.1299 14.7662 93.1299 13.8937C93.1299 12.9812 93.4004 12.2324 93.944 11.6512C94.4876 11.0699 95.2183 10.7787 96.1376 10.7787C97.026 10.7787 97.7376 11.0649 98.2786 11.6387C98.7914 12.1962 99.0491 12.9162 99.0491 13.7962ZM97.6542 13.8387C97.6542 13.2949 97.5337 12.8287 97.294 12.4399C97.0132 11.9699 96.6106 11.7349 96.0901 11.7349C95.5491 11.7349 95.1389 11.9699 94.8581 12.4399C94.6171 12.8287 94.4978 13.3024 94.4978 13.8624C94.4978 14.4062 94.6183 14.8724 94.8581 15.2612C95.1491 15.7312 95.5542 15.9662 96.0773 15.9662C96.5901 15.9662 96.9914 15.7274 97.2812 15.2487C97.5312 14.8524 97.6542 14.3824 97.6542 13.8387Z" fill="white"/>
<path d="M105.551 16.7912H104.345L104.245 16.1124H104.208C103.795 16.6537 103.207 16.9249 102.442 16.9249C101.872 16.9249 101.41 16.7462 101.063 16.3912C100.748 16.0687 100.59 15.6674 100.59 15.1912C100.59 14.4712 100.898 13.9224 101.517 13.5424C102.135 13.1624 103.004 12.9762 104.123 12.9849V12.8749C104.123 12.0987 103.705 11.7112 102.868 11.7112C102.272 11.7112 101.746 11.8574 101.292 12.1474L101.019 11.2874C101.581 10.9487 102.274 10.7787 103.092 10.7787C104.672 10.7787 105.464 11.5912 105.464 13.2162V15.3862C105.464 15.9749 105.494 16.4437 105.551 16.7912ZM104.157 14.7662V13.8574C102.674 13.8324 101.933 14.2287 101.933 15.0449C101.933 15.3524 102.018 15.5824 102.191 15.7362C102.364 15.8899 102.585 15.9662 102.848 15.9662C103.142 15.9662 103.418 15.8749 103.669 15.6937C103.922 15.5112 104.077 15.2799 104.135 14.9962C104.149 14.9324 104.157 14.8549 104.157 14.7662Z" fill="white"/>
<path d="M113.186 16.7912H111.994L111.931 15.8449H111.894C111.513 16.5649 110.864 16.9249 109.953 16.9249C109.225 16.9249 108.618 16.6462 108.137 16.0887C107.657 15.5312 107.417 14.8074 107.417 13.9187C107.417 12.9649 107.677 12.1924 108.2 11.6024C108.707 11.0524 109.327 10.7774 110.066 10.7774C110.877 10.7774 111.445 11.0437 111.768 11.5774H111.794V8.19495H113.139V15.2037C113.139 15.7774 113.154 16.3062 113.186 16.7912ZM111.794 14.3062V13.3237C111.794 13.1537 111.781 13.0162 111.757 12.9112C111.681 12.5962 111.518 12.3312 111.271 12.1174C111.021 11.9037 110.72 11.7962 110.372 11.7962C109.871 11.7962 109.479 11.9899 109.19 12.3787C108.904 12.7674 108.759 13.2637 108.759 13.8699C108.759 14.4524 108.896 14.9249 109.172 15.2887C109.463 15.6762 109.855 15.8699 110.346 15.8699C110.787 15.8699 111.14 15.7087 111.408 15.3849C111.667 15.0862 111.794 14.7262 111.794 14.3062Z" fill="white"/>
<path d="M124.677 13.7962C124.677 14.7024 124.412 15.4449 123.881 16.0274C123.324 16.6262 122.589 16.9249 121.667 16.9249C120.781 16.9249 120.074 16.6387 119.546 16.0637C119.021 15.4899 118.758 14.7662 118.758 13.8937C118.758 12.9812 119.028 12.2324 119.572 11.6512C120.116 11.0699 120.846 10.7787 121.768 10.7787C122.654 10.7787 123.368 11.0649 123.907 11.6387C124.419 12.1962 124.677 12.9162 124.677 13.7962ZM123.285 13.8387C123.285 13.2949 123.164 12.8287 122.924 12.4399C122.641 11.9699 122.241 11.7349 121.718 11.7349C121.18 11.7349 120.769 11.9699 120.486 12.4399C120.245 12.8287 120.126 13.3024 120.126 13.8624C120.126 14.4062 120.246 14.8724 120.486 15.2612C120.777 15.7312 121.182 15.9662 121.705 15.9662C122.218 15.9662 122.622 15.7274 122.912 15.2487C123.159 14.8524 123.285 14.3824 123.285 13.8387Z" fill="white"/>
<path d="M131.902 16.7912H130.559V13.4162C130.559 12.3762 130.154 11.8562 129.34 11.8562C128.941 11.8562 128.62 11.9987 128.371 12.2849C128.122 12.5712 127.998 12.9087 127.998 13.2949V16.7899H126.653V12.5824C126.653 12.0649 126.638 11.5037 126.605 10.8962H127.785L127.848 11.8174H127.885C128.043 11.5312 128.276 11.2949 128.581 11.1062C128.946 10.8862 129.353 10.7749 129.8 10.7749C130.363 10.7749 130.832 10.9524 131.205 11.3087C131.671 11.7449 131.902 12.3962 131.902 13.2612V16.7912Z" fill="white"/>
<path d="M140.943 11.8799H139.464V14.7424C139.464 15.4699 139.727 15.8337 140.247 15.8337C140.488 15.8337 140.688 15.8137 140.846 15.7724L140.881 16.7662C140.615 16.8637 140.267 16.9124 139.837 16.9124C139.306 16.9124 138.893 16.7549 138.595 16.4399C138.295 16.1249 138.146 15.5949 138.146 14.8512V11.8799H137.263V10.8987H138.146V9.81865L139.463 9.43115V10.8974H140.942V11.8799H140.943Z" fill="white"/>
<path d="M148.056 16.7912H146.711V13.4412C146.711 12.3849 146.306 11.8562 145.495 11.8562C144.872 11.8562 144.446 12.1624 144.213 12.7749C144.173 12.9037 144.15 13.0612 144.15 13.2462V16.7899H142.808V8.19495H144.15V11.7462H144.176C144.599 11.0999 145.205 10.7774 145.991 10.7774C146.547 10.7774 147.008 10.9549 147.373 11.3112C147.828 11.7549 148.056 12.4149 148.056 13.2874V16.7912Z" fill="white"/>
<path d="M155.394 13.5662C155.394 13.8012 155.376 13.9987 155.344 14.16H151.314C151.332 14.7425 151.524 15.1862 151.897 15.4937C152.238 15.7687 152.678 15.9062 153.217 15.9062C153.813 15.9062 154.356 15.8137 154.846 15.6275L155.056 16.5375C154.483 16.78 153.809 16.9012 153.028 16.9012C152.092 16.9012 151.355 16.6325 150.822 16.095C150.286 15.5575 150.021 14.8362 150.021 13.9312C150.021 13.0425 150.268 12.3025 150.767 11.7125C151.287 11.0825 151.991 10.7675 152.879 10.7675C153.749 10.7675 154.409 11.0825 154.855 11.7125C155.215 12.2125 155.394 12.8312 155.394 13.5662ZM154.112 13.2275C154.122 12.8387 154.033 12.5037 153.851 12.2212C153.618 11.8575 153.263 11.675 152.782 11.675C152.344 11.675 151.986 11.8525 151.713 12.2087C151.49 12.4925 151.358 12.8312 151.314 13.2275H154.112Z" fill="white"/>
<path d="M68.7759 39.38H65.8644L64.2695 34.4937H58.7259L57.2067 39.38H54.3721L59.8644 22.745H63.2567L68.7759 39.38ZM63.7887 32.4437L62.3464 28.1C62.1939 27.6562 61.908 26.6112 61.4862 24.9662H61.4349C61.2669 25.6737 60.9964 26.7187 60.6246 28.1L59.208 32.4437H63.7887Z" fill="white"/>
<path d="M82.9002 33.2349C82.9002 35.2749 82.3348 36.8874 81.204 38.0712C80.1912 39.1249 78.9335 39.6512 77.4322 39.6512C75.8117 39.6512 74.6476 39.0837 73.9386 37.9487H73.8873V44.2674H71.154V31.3337C71.154 30.0512 71.1194 28.7349 71.0527 27.3849H73.4566L73.6091 29.2862H73.6604C74.572 27.8537 75.9553 27.1387 77.8117 27.1387C79.263 27.1387 80.4745 27.6974 81.4438 28.8162C82.4156 29.9362 82.9002 31.4087 82.9002 33.2349ZM80.1156 33.3324C80.1156 32.1649 79.8463 31.2024 79.3053 30.4449C78.7143 29.6549 77.9207 29.2599 76.9258 29.2599C76.2514 29.2599 75.6386 29.4799 75.0912 29.9137C74.5425 30.3512 74.1835 30.9224 74.0156 31.6299C73.9309 31.9599 73.8886 32.2299 73.8886 32.4424V34.4424C73.8886 35.3149 74.163 36.0512 74.7117 36.6524C75.2604 37.2537 75.9732 37.5537 76.8502 37.5537C77.8797 37.5537 78.6809 37.1662 79.254 36.3937C79.8284 35.6199 80.1156 34.5999 80.1156 33.3324Z" fill="white"/>
<path d="M97.0503 33.2349C97.0503 35.2749 96.4849 36.8874 95.3528 38.0712C94.3413 39.1249 93.0836 39.6512 91.5823 39.6512C89.9618 39.6512 88.7977 39.0837 88.09 37.9487H88.0387V44.2674H85.3054V31.3337C85.3054 30.0512 85.2708 28.7349 85.2041 27.3849H87.6079L87.7605 29.2862H87.8118C88.722 27.8537 90.1054 27.1387 91.9631 27.1387C93.4131 27.1387 94.6246 27.6974 95.5964 28.8162C96.5644 29.9362 97.0503 31.4087 97.0503 33.2349ZM94.2656 33.3324C94.2656 32.1649 93.9951 31.2024 93.4541 30.4449C92.8631 29.6549 92.0721 29.2599 91.0759 29.2599C90.4003 29.2599 89.7887 29.4799 89.24 29.9137C88.6913 30.3512 88.3336 30.9224 88.1656 31.6299C88.0823 31.9599 88.0387 32.2299 88.0387 32.4424V34.4424C88.0387 35.3149 88.3131 36.0512 88.8592 36.6524C89.4079 37.2524 90.1208 37.5537 91.0003 37.5537C92.0297 37.5537 92.831 37.1662 93.4041 36.3937C93.9785 35.6199 94.2656 34.5999 94.2656 33.3324Z" fill="white"/>
<path d="M112.871 34.715C112.871 36.13 112.367 37.2812 111.355 38.17C110.244 39.1412 108.696 39.6262 106.708 39.6262C104.872 39.6262 103.4 39.2812 102.286 38.59L102.919 36.3687C104.119 37.0762 105.436 37.4312 106.871 37.4312C107.9 37.4312 108.702 37.2037 109.277 36.7512C109.85 36.2987 110.136 35.6912 110.136 34.9337C110.136 34.2587 109.9 33.69 109.427 33.2287C108.957 32.7675 108.171 32.3387 107.073 31.9425C104.086 30.8562 102.594 29.265 102.594 27.1725C102.594 25.805 103.117 24.6837 104.164 23.8112C105.208 22.9375 106.6 22.5012 108.341 22.5012C109.894 22.5012 111.184 22.765 112.213 23.2912L111.53 25.4637C110.568 24.9537 109.481 24.6987 108.264 24.6987C107.303 24.6987 106.552 24.93 106.013 25.39C105.558 25.8012 105.33 26.3025 105.33 26.8962C105.33 27.5537 105.59 28.0975 106.113 28.525C106.568 28.92 107.395 29.3475 108.595 29.8087C110.063 30.385 111.141 31.0587 111.835 31.8312C112.526 32.6012 112.871 33.565 112.871 34.715Z" fill="white"/>
<path d="M121.908 29.385H118.895V35.2087C118.895 36.69 119.426 37.43 120.49 37.43C120.979 37.43 121.384 37.3887 121.704 37.3062L121.78 39.33C121.242 39.5262 120.533 39.625 119.654 39.625C118.575 39.625 117.731 39.3037 117.122 38.6625C116.516 38.02 116.211 36.9425 116.211 35.4287V29.3825H114.416V27.3825H116.211V25.1862L118.895 24.3962V27.3825H121.908V29.385Z" fill="white"/>
<path d="M135.501 33.2838C135.501 35.1275 134.96 36.6413 133.881 37.825C132.749 39.0438 131.246 39.6513 129.373 39.6513C127.568 39.6513 126.131 39.0675 125.059 37.9C123.987 36.7325 123.451 35.2588 123.451 33.4825C123.451 31.6238 124.002 30.1013 125.109 28.9175C126.213 27.7325 127.702 27.14 129.576 27.14C131.381 27.14 132.833 27.7238 133.929 28.8925C134.978 30.0263 135.501 31.49 135.501 33.2838ZM132.665 33.37C132.665 32.2638 132.423 31.315 131.932 30.5238C131.359 29.5663 130.54 29.0888 129.478 29.0888C128.379 29.0888 127.545 29.5675 126.972 30.5238C126.481 31.3163 126.238 32.28 126.238 33.42C126.238 34.5263 126.481 35.475 126.972 36.265C127.563 37.2225 128.388 37.7 129.454 37.7C130.497 37.7 131.317 37.2125 131.908 36.24C132.411 35.4338 132.665 34.475 132.665 33.37Z" fill="white"/>
<path d="M144.386 29.7287C144.115 29.6799 143.827 29.6549 143.524 29.6549C142.563 29.6549 141.819 30.0087 141.296 30.7174C140.841 31.3424 140.613 32.1324 140.613 33.0862V39.3799H137.881L137.906 31.1624C137.906 29.7799 137.872 28.5212 137.804 27.3862H140.184L140.284 29.6812H140.36C140.649 28.8924 141.104 28.2574 141.727 27.7812C142.336 27.3524 142.993 27.1387 143.702 27.1387C143.955 27.1387 144.183 27.1562 144.386 27.1874V29.7287Z" fill="white"/>
<path d="M156.61 32.815C156.61 33.2925 156.578 33.695 156.51 34.0237H148.31C148.342 35.2087 148.738 36.115 149.5 36.74C150.191 37.2987 151.084 37.5787 152.182 37.5787C153.396 37.5787 154.504 37.39 155.5 37.0112L155.928 38.8612C154.764 39.3562 153.39 39.6025 151.804 39.6025C149.896 39.6025 148.399 39.055 147.309 37.9612C146.222 36.8675 145.677 35.3987 145.677 33.5562C145.677 31.7475 146.183 30.2412 147.197 29.04C148.259 27.7575 149.693 27.1162 151.499 27.1162C153.272 27.1162 154.614 27.7575 155.525 29.04C156.247 30.0587 156.61 31.3187 156.61 32.815ZM154.004 32.1237C154.022 31.3337 153.843 30.6512 153.473 30.075C153 29.3337 152.273 28.9637 151.295 28.9637C150.401 28.9637 149.674 29.325 149.119 30.05C148.664 30.6262 148.393 31.3175 148.31 32.1225H154.004V32.1237Z" fill="white"/>
</svg>
