<svg width="174" height="50" viewBox="0 0 174 50" fill="none" xmlns="http://www.w3.org/2000/svg">
<path d="M166.744 50H6.48741C2.96337 50 0.0771484 47.1859 0.0771484 43.75V6.25C0.0771484 2.81406 2.96337 0 6.48741 0H166.744C170.268 0 173.154 2.81406 173.154 6.25V43.75C173.154 47.1859 170.268 50 166.744 50Z" fill="black"/>
<path d="M166.744 1.00156C169.712 1.00156 172.127 3.35625 172.127 6.25V43.75C172.127 46.6438 169.712 48.9984 166.744 48.9984H6.48741C3.51946 48.9984 1.10439 46.6438 1.10439 43.75V6.25C1.10439 3.35625 3.51946 1.00156 6.48741 1.00156H166.744ZM166.744 0H6.48741C2.96337 0 0.0771484 2.81406 0.0771484 6.25V43.75C0.0771484 47.1859 2.96337 50 6.48741 50H166.744C170.268 50 173.154 47.1859 173.154 43.75V6.25C173.154 2.81406 170.268 0 166.744 0Z" fill="#A6A6A6"/>
<path d="M13.4549 9.42348C13.0783 9.80786 12.8604 10.4063 12.8604 11.1813V38.825C12.8604 39.6 13.0783 40.1985 13.4549 40.5829L13.5479 40.6672L29.4357 25.1829V24.8172L13.5479 9.33286L13.4549 9.42348Z" fill="url(#paint0_linear_1_3294)"/>
<path d="M34.7256 30.3469L29.4355 25.1829V24.8172L34.732 19.6532L34.8506 19.7204L41.123 23.2C42.9131 24.1875 42.9131 25.8125 41.123 26.8063L34.8506 30.2797L34.7256 30.3469Z" fill="url(#paint1_linear_1_3294)"/>
<path d="M34.8509 30.2797L29.4358 25L13.4551 40.5828C14.0496 41.1922 15.0192 41.2657 16.1217 40.6563L34.8509 30.2797Z" fill="url(#paint2_linear_1_3294)"/>
<path d="M34.8509 19.7203L16.1217 9.34376C15.0192 8.74063 14.0496 8.81407 13.4551 9.42344L29.4358 25L34.8509 19.7203Z" fill="url(#paint3_linear_1_3294)"/>
<path d="M60.8684 12.8046C60.8684 13.8484 60.5479 14.6843 59.9165 15.3077C59.1905 16.0468 58.245 16.4187 57.0864 16.4187C55.979 16.4187 55.0335 16.0405 54.2578 15.2952C53.4806 14.539 53.0928 13.6109 53.0928 12.4999C53.0928 11.389 53.4806 10.4609 54.2578 9.71086C55.0335 8.9593 55.979 8.58118 57.0864 8.58118C57.6376 8.58118 58.1633 8.69211 58.6649 8.89836C59.1649 9.10618 59.5719 9.38743 59.8668 9.7343L59.1969 10.3937C58.6825 9.80149 57.9822 9.5093 57.0864 9.5093C56.2787 9.5093 55.5784 9.7843 54.9838 10.339C54.3957 10.8952 54.1008 11.6156 54.1008 12.4999C54.1008 13.3843 54.3957 14.1109 54.9838 14.6671C55.5784 15.2155 56.2787 15.4968 57.0864 15.4968C57.9437 15.4968 58.6649 15.2155 59.2338 14.6609C59.6088 14.2937 59.8219 13.7874 59.878 13.1406H57.0864V12.2374H60.8107C60.8556 12.4327 60.8684 12.6218 60.8684 12.8046Z" fill="white" stroke="white" stroke-width="0.16" stroke-miterlimit="10"/>
<path d="M66.7769 9.67336H63.2785V12.0484H66.4323V12.9515H63.2785V15.3265H66.7769V16.2468H62.2881V8.75305H66.7769V9.67336Z" fill="white" stroke="white" stroke-width="0.16" stroke-miterlimit="10"/>
<path d="M70.9468 16.2468H69.9564V9.67336H67.8105V8.75305H73.0942V9.67336H70.9468V16.2468Z" fill="white" stroke="white" stroke-width="0.16" stroke-miterlimit="10"/>
<path d="M76.918 16.2468V8.75305H77.9068V16.2468H76.918Z" fill="white" stroke="white" stroke-width="0.16" stroke-miterlimit="10"/>
<path d="M82.2895 16.2468H81.3072V9.67336H79.1533V8.75305H84.4434V9.67336H82.2895V16.2468Z" fill="white" stroke="white" stroke-width="0.16" stroke-miterlimit="10"/>
<path d="M94.4469 15.2827C93.6889 16.0405 92.7498 16.4187 91.6296 16.4187C90.503 16.4187 89.5639 16.0405 88.8059 15.2827C88.0495 14.5265 87.6729 13.5984 87.6729 12.4999C87.6729 11.4015 88.0495 10.4734 88.8059 9.71711C89.5639 8.9593 90.503 8.58118 91.6296 8.58118C92.7434 8.58118 93.6825 8.9593 94.4405 9.72336C95.2033 10.4859 95.5799 11.4077 95.5799 12.4999C95.5799 13.5984 95.2033 14.5265 94.4469 15.2827ZM89.5382 14.6546C90.1088 15.2155 90.8027 15.4968 91.6296 15.4968C92.4501 15.4968 93.1504 15.2155 93.7145 14.6546C94.2834 14.0937 94.5719 13.3734 94.5719 12.4999C94.5719 11.6265 94.2834 10.9062 93.7145 10.3452C93.1504 9.7843 92.4501 9.50305 91.6296 9.50305C90.8027 9.50305 90.1088 9.7843 89.5382 10.3452C88.9693 10.9062 88.6809 11.6265 88.6809 12.4999C88.6809 13.3734 88.9693 14.0937 89.5382 14.6546Z" fill="white" stroke="white" stroke-width="0.16" stroke-miterlimit="10"/>
<path d="M96.9697 16.2468V8.75305H98.1716L101.909 14.5812H101.952L101.909 13.1405V8.75305H102.898V16.2468H101.866L97.9521 10.1312H97.9088L97.9521 11.5781V16.2468H96.9697Z" fill="white" stroke="white" stroke-width="0.16" stroke-miterlimit="10"/>
<path d="M87.4295 27.1907C84.4183 27.1907 81.9584 29.4251 81.9584 32.5079C81.9584 35.5657 84.4183 37.8235 87.4295 37.8235C90.4472 37.8235 92.9071 35.5657 92.9071 32.5079C92.9071 29.4251 90.4472 27.1907 87.4295 27.1907ZM87.4295 35.7297C85.7773 35.7297 84.3558 34.4001 84.3558 32.5079C84.3558 30.5907 85.7773 29.2844 87.4295 29.2844C89.0818 29.2844 90.5097 30.5907 90.5097 32.5079C90.5097 34.4001 89.0818 35.7297 87.4295 35.7297ZM75.4921 27.1907C72.4744 27.1907 70.0209 29.4251 70.0209 32.5079C70.0209 35.5657 72.4744 37.8235 75.4921 37.8235C78.5081 37.8235 80.9632 35.5657 80.9632 32.5079C80.9632 29.4251 78.5081 27.1907 75.4921 27.1907ZM75.4921 35.7297C73.8382 35.7297 72.4119 34.4001 72.4119 32.5079C72.4119 30.5907 73.8382 29.2844 75.4921 29.2844C77.1443 29.2844 78.5658 30.5907 78.5658 32.5079C78.5658 34.4001 77.1443 35.7297 75.4921 35.7297ZM61.2869 28.8204V31.0797H66.8206C66.6587 32.3422 66.226 33.2704 65.5626 33.9172C64.7549 34.6985 63.4969 35.5657 61.2869 35.5657C57.8815 35.5657 55.2148 32.886 55.2148 29.5657C55.2148 26.2454 57.8815 23.5657 61.2869 23.5657C63.1283 23.5657 64.468 24.2672 65.4568 25.1766L67.0898 23.5844C65.7068 22.2969 63.8671 21.3079 61.2869 21.3079C56.6171 21.3079 52.6924 25.0126 52.6924 29.5657C52.6924 34.1188 56.6171 37.8235 61.2869 37.8235C63.811 37.8235 65.7068 37.0172 67.1972 35.5047C68.7244 34.0157 69.2004 31.9219 69.2004 30.2313C69.2004 29.7063 69.1555 29.2235 69.0754 28.8204H61.2869ZM119.373 30.5719C118.923 29.3829 117.534 27.1907 114.704 27.1907C111.899 27.1907 109.564 29.3454 109.564 32.5079C109.564 35.486 111.875 37.8235 114.973 37.8235C117.478 37.8235 118.923 36.3344 119.518 35.4672L117.659 34.2594C117.039 35.1438 116.194 35.7297 114.973 35.7297C113.76 35.7297 112.889 35.1876 112.332 34.1188L119.625 31.1766L119.373 30.5719ZM111.938 32.3422C111.875 30.2922 113.571 29.2422 114.785 29.2422C115.737 29.2422 116.545 29.7063 116.814 30.3704L111.938 32.3422ZM106.01 37.5H108.407V21.8751H106.01V37.5ZM102.083 28.3751H102.003C101.465 27.7532 100.438 27.1907 99.1363 27.1907C96.4055 27.1907 93.9087 29.5282 93.9087 32.5251C93.9087 35.5047 96.4055 37.8235 99.1363 37.8235C100.438 37.8235 101.465 37.2563 102.003 36.6157H102.083V37.3782C102.083 39.411 100.97 40.5032 99.1731 40.5032C97.7084 40.5032 96.7997 39.4719 96.4247 38.6047L94.3398 39.4532C94.9408 40.8625 96.5321 42.5969 99.1731 42.5969C101.984 42.5969 104.356 40.9844 104.356 37.061V27.5141H102.083V28.3751ZM99.3414 35.7297C97.6892 35.7297 96.3061 34.3813 96.3061 32.5251C96.3061 30.6516 97.6892 29.2844 99.3414 29.2844C100.97 29.2844 102.253 30.6516 102.253 32.5251C102.253 34.3813 100.97 35.7297 99.3414 35.7297ZM130.598 21.8751H124.864V37.5H127.255V31.5797H130.598C133.253 31.5797 135.857 29.7063 135.857 26.7266C135.857 23.7485 133.247 21.8751 130.598 21.8751ZM130.66 29.4063H127.255V24.0485H130.66C132.446 24.0485 133.465 25.4938 133.465 26.7266C133.465 27.936 132.446 29.4063 130.66 29.4063ZM145.441 27.161C143.713 27.161 141.917 27.9047 141.178 29.5532L143.3 30.4204C143.756 29.5532 144.596 29.2719 145.484 29.2719C146.724 29.2719 147.982 29.9985 148.002 31.2813V31.4454C147.569 31.2016 146.643 30.8407 145.503 30.8407C143.218 30.8407 140.889 32.0672 140.889 34.3563C140.889 36.4501 142.761 37.7985 144.865 37.7985C146.474 37.7985 147.362 37.0907 147.92 36.2672H148.002V37.475H150.311V31.4813C150.311 28.711 148.189 27.161 145.441 27.161ZM145.152 35.7235C144.37 35.7235 143.28 35.3454 143.28 34.4001C143.28 33.1907 144.639 32.7266 145.816 32.7266C146.869 32.7266 147.362 32.9532 148.002 33.2516C147.814 34.6985 146.537 35.7235 145.152 35.7235ZM158.724 27.5032L155.976 34.2766H155.894L153.053 27.5032H150.474L154.744 36.9688L152.308 42.236H154.806L161.385 27.5032H158.724ZM137.172 37.5H139.569V21.8751H137.172V37.5Z" fill="white"/>
<defs>
<linearGradient id="paint0_linear_1_3294" x1="28.025" y1="39.1129" x2="7.05374" y2="17.6039" gradientUnits="userSpaceOnUse">
<stop stop-color="#00A0FF"/>
<stop offset="0.0066" stop-color="#00A1FF"/>
<stop offset="0.2601" stop-color="#00BEFF"/>
<stop offset="0.5122" stop-color="#00D2FF"/>
<stop offset="0.7604" stop-color="#00DFFF"/>
<stop offset="1" stop-color="#00E3FF"/>
</linearGradient>
<linearGradient id="paint1_linear_1_3294" x1="43.454" y1="24.9983" x2="12.4323" y2="24.9983" gradientUnits="userSpaceOnUse">
<stop stop-color="#FFE000"/>
<stop offset="0.4087" stop-color="#FFBD00"/>
<stop offset="0.7754" stop-color="#FFA500"/>
<stop offset="1" stop-color="#FF9C00"/>
</linearGradient>
<linearGradient id="paint2_linear_1_3294" x1="31.9064" y1="22.1299" x2="3.4676" y2="-7.03805" gradientUnits="userSpaceOnUse">
<stop stop-color="#FF3A44"/>
<stop offset="1" stop-color="#C31162"/>
</linearGradient>
<linearGradient id="paint3_linear_1_3294" x1="9.43239" y1="49.7798" x2="22.1316" y2="36.7551" gradientUnits="userSpaceOnUse">
<stop stop-color="#32A071"/>
<stop offset="0.0685" stop-color="#2DA771"/>
<stop offset="0.4762" stop-color="#15CF74"/>
<stop offset="0.8009" stop-color="#06E775"/>
<stop offset="1" stop-color="#00F076"/>
</linearGradient>
</defs>
</svg>
