<svg width="24" height="24" viewBox="0 0 24 24" fill="none" xmlns="http://www.w3.org/2000/svg">
<path d="M12.0238 0H11.9691C5.35877 0 0 5.36035 0 11.9727V12.0273C0 18.6397 5.35877 24 11.9691 24H12.0238C18.6342 24 23.9929 18.6397 23.9929 12.0273V11.9727C23.9929 5.36035 18.6342 0 12.0238 0Z" fill="black"/>
<path d="M15.7081 4.88257H8.28406C6.23302 4.88257 4.56445 6.55163 4.56445 8.60327V15.3972C4.56445 17.4489 6.23302 19.1179 8.28406 19.1179H15.7081C17.7592 19.1179 19.4277 17.4489 19.4277 15.3972V8.60327C19.4277 6.55163 17.7592 4.88257 15.7081 4.88257ZM5.87661 8.60327C5.87661 7.27559 6.95677 6.19511 8.28406 6.19511H15.7081C17.0354 6.19511 18.1156 7.27559 18.1156 8.60327V15.3972C18.1156 16.7249 17.0354 17.8054 15.7081 17.8054H8.28406C6.95677 17.8054 5.87661 16.7249 5.87661 15.3972V8.60327Z" fill="white"/>
<path d="M11.996 15.4603C13.9033 15.4603 15.4559 13.9082 15.4559 11.9995C15.4559 10.0908 13.9041 8.53857 11.996 8.53857C10.0879 8.53857 8.53613 10.0908 8.53613 11.9995C8.53613 13.9082 10.0879 15.4603 11.996 15.4603ZM11.996 9.85196C13.1804 9.85196 14.1437 10.8156 14.1437 12.0003C14.1437 13.185 13.1804 14.1486 11.996 14.1486C10.8116 14.1486 9.84829 13.185 9.84829 12.0003C9.84829 10.8156 10.8116 9.85196 11.996 9.85196Z" fill="white"/>
<path d="M15.776 9.09765C16.2896 9.09765 16.7082 8.67975 16.7082 8.16516C16.7082 7.65056 16.2904 7.23267 15.776 7.23267C15.2615 7.23267 14.8438 7.65056 14.8438 8.16516C14.8438 8.67975 15.2615 9.09765 15.776 9.09765Z" fill="white"/>
</svg>
