<svg width="82" height="54" viewBox="0 0 82 54" fill="none" xmlns="http://www.w3.org/2000/svg">
<g clip-path="url(#clip0_1_4313)">
<path d="M40.9999 0.373169C18.5673 0.373169 0.378906 12.2938 0.378906 26.9946C0.378906 41.7007 18.5673 53.6268 40.9999 53.6268C63.4324 53.6268 81.6208 41.7061 81.6208 26.9946C81.6208 12.283 63.4324 0.373169 40.9999 0.373169ZM40.9999 42.1983C37.6633 42.1983 34.9406 35.5402 34.7698 27.1622C36.7771 27.3407 38.8645 27.4381 40.9999 27.4381C43.1353 27.4381 45.2227 27.3407 47.23 27.1622C47.0591 35.5348 44.3365 42.1983 40.9999 42.1983ZM35.1809 20.5096C36.0884 14.5871 38.352 10.3846 40.9999 10.3846C43.6478 10.3846 45.9113 14.5871 46.8189 20.5096C44.9557 20.6773 43.0125 20.7692 40.9999 20.7692C38.9872 20.7692 37.044 20.6773 35.1809 20.5096ZM40.9999 4.22413C36.6436 4.22413 32.928 10.8335 31.556 20.0607C23.2973 18.7572 17.5316 15.7824 17.5316 12.3263C17.5316 7.66403 28.0379 3.88339 40.9999 3.88339C53.9619 3.88339 64.4681 7.66403 64.4681 12.3263C64.4681 15.7824 58.7025 18.7572 50.4438 20.0607C49.0718 10.8335 45.3561 4.22413 40.9999 4.22413ZM6.20325 25.9994C6.20325 21.4886 7.91693 17.2536 10.9012 13.619C10.8691 13.8732 10.8478 14.1328 10.8478 14.3924C10.8478 20.0769 19.2613 24.923 31.0008 26.7079C30.9901 27.119 30.9901 27.5354 30.9901 27.9519C30.9901 38.5475 33.921 47.5204 37.9729 50.5655C20.1689 49.4783 6.20325 38.8936 6.20325 25.9994ZM44.0268 50.5655C48.0788 47.5204 51.0096 38.5475 51.0096 27.9519C51.0096 27.53 51.0043 27.119 50.999 26.7079C62.7331 24.923 71.152 20.0823 71.152 14.3924C71.152 14.1328 71.1306 13.8732 71.0986 13.619C74.0828 17.2644 75.7965 21.4886 75.7965 25.9994C75.7965 38.8936 61.8309 49.4783 44.0268 50.5655Z" fill="black"/>
</g>
<defs>
<clipPath id="clip0_1_4313">
<rect width="82" height="54" fill="white"/>
</clipPath>
</defs>
</svg>
