<svg width="109" height="44" viewBox="0 0 109 44" fill="none" xmlns="http://www.w3.org/2000/svg">
<g clip-path="url(#clip0_1_4322)">
<path d="M90.9046 23.4891C90.816 28.3843 91.8721 30.9772 95.9029 30.9772C99.927 30.9772 100.505 26.5603 100.505 23.1992C100.505 19.8359 99.7409 16.5709 95.5129 16.5709C92.9193 16.5709 91.0043 18.5886 90.9046 23.4891ZM82.75 43.9454V10.8092H91.0043C91.0043 10.8092 91.0043 11.289 91.0043 12.1533C91.0043 13.9462 91.7266 13.2069 92.3085 12.5082C92.406 12.3914 94.2456 10.1371 98.3887 10.1371C102.519 10.1371 108.945 13.0176 108.945 23.1992C108.945 31.0748 105.111 36.8366 98.4906 36.8366C94.8424 36.8366 92.7332 35.3985 92.2509 34.8181C91.7679 34.2459 91.0974 34.1461 91.0974 34.8181C91.0974 35.4917 91.0974 43.9454 91.0974 43.9454H82.75Z" fill="black"/>
<path d="M18.9524 0.0545616H27.8751C27.8751 0.0545616 27.8751 19.4537 27.8751 23.4891C27.8751 27.52 26.1462 35.9745 13.7725 35.9745C1.3973 35.9745 0.0546875 28.0945 0.0546875 23.6798V19.3583H8.68934C8.68934 19.3583 8.68934 20.9908 8.68934 23.5822C8.68934 26.1751 10.4167 28.5751 13.6765 28.5751C16.9378 28.5751 18.9524 26.7511 18.9524 23.6798C18.9524 20.6063 18.9524 0.0545616 18.9524 0.0545616Z" fill="black"/>
<path d="M46.5333 19.9342C46.5333 17.5306 45.1929 15.226 42.1229 15.226C39.1489 15.226 38.0928 17.3369 38.0928 19.9342H46.5333ZM41.2625 9.84873C48.2695 9.84873 54.4065 12.537 54.4065 24.9271H37.8115C37.8115 28.8649 39.4406 30.4981 42.3186 30.4981C45.1973 30.4981 46.1559 28.1913 46.1559 28.1913H54.3127C54.3127 31.7461 49.4194 36.5482 42.0306 36.4528C33.5909 36.4528 29.4648 30.2097 29.4648 23.7744C29.4648 17.3369 33.1079 9.84873 41.2625 9.84873Z" fill="black"/>
<path d="M73.0628 19.9342C73.0628 17.5306 71.721 15.226 68.651 15.226C65.6785 15.226 64.6202 17.3369 64.6202 19.9342H73.0628ZM67.7921 9.84873C74.7983 9.84873 80.9339 12.537 80.9339 24.9271H64.3396C64.3396 28.8649 65.9702 30.4981 68.8504 30.4981C71.7261 30.4981 72.6862 28.1913 72.6862 28.1913H80.843C80.843 31.7461 75.9489 36.5482 68.5624 36.4528C60.1182 36.4528 55.9922 30.2097 55.9922 23.7744C55.9922 17.3369 59.6397 9.84873 67.7921 9.84873Z" fill="black"/>
<path d="M103.482 39.9727C103.482 38.6604 104.549 37.5943 105.864 37.5943C107.175 37.5943 108.24 38.6604 108.24 39.9727C108.24 41.2829 107.175 42.3557 105.864 42.3557C104.549 42.3557 103.482 41.2829 103.482 39.9727ZM103.207 39.9727C103.207 41.4411 104.395 42.6329 105.864 42.6329C107.324 42.6329 108.518 41.4411 108.518 39.9727C108.518 38.5044 107.324 37.3126 105.864 37.3126C104.395 37.3126 103.207 38.5044 103.207 39.9727Z" fill="black"/>
<path d="M106.931 41.3331L106.379 40.0289C106.554 39.9683 106.612 39.9254 106.705 39.8256C106.827 39.6955 106.903 39.4899 106.903 39.3036C106.903 38.8334 106.542 38.5132 106.018 38.5132H104.91V41.3331H105.239V40.1117H106.039L106.565 41.3331H106.931ZM105.23 39.8256V38.8201H106.011C106.338 38.8201 106.545 39.0064 106.545 39.2947C106.545 39.6223 106.325 39.8256 105.965 39.8256H105.23Z" fill="black"/>
</g>
<defs>
<clipPath id="clip0_1_4322">
<rect width="109" height="44" fill="white"/>
</clipPath>
</defs>
</svg>
