<svg width="124" height="42" viewBox="0 0 124 42" fill="none" xmlns="http://www.w3.org/2000/svg">
<path d="M21.511 2.4707C16.5349 2.63273 11.8232 4.69725 8.39171 8.21922C4.96022 11.7412 3.08371 16.4385 3.1667 21.2987C3.2497 26.1588 5.28554 30.7925 8.83538 34.2008C12.3852 37.6092 17.1648 39.5192 22.1437 39.5192C27.1226 39.5192 31.9021 37.6092 35.4519 34.2008C39.0018 30.7925 41.0376 26.1588 41.1206 21.2987C41.2036 16.4385 39.3271 11.7412 35.8956 8.21922C32.4641 4.69725 27.7525 2.63273 22.7763 2.4707H21.511ZM48.0824 2.4707C43.1063 2.63273 38.3946 4.69725 34.9631 8.21922C31.5316 11.7412 29.6551 16.4385 29.7381 21.2987C29.8211 26.1588 31.857 30.7925 35.4068 34.2008C38.9567 37.6092 43.7362 39.5192 48.7151 39.5192C53.694 39.5192 58.4735 37.6092 62.0234 34.2008C65.5732 30.7925 67.6091 26.1588 67.692 21.2987C67.775 16.4385 65.8985 11.7412 62.467 8.21922C59.0355 4.69725 54.3239 2.63273 49.3477 2.4707H48.0824ZM74.6539 2.4707C69.6777 2.63273 64.9661 4.69725 61.5346 8.21922C58.1031 11.7412 56.2266 16.4385 56.3096 21.2987C56.3926 26.1588 58.4284 30.7925 61.9782 34.2008C65.5281 37.6092 70.3076 39.5192 75.2865 39.5192C80.2654 39.5192 85.045 37.6092 88.5948 34.2008C92.1446 30.7925 94.1805 26.1588 94.2635 21.2987C94.3465 16.4385 92.47 11.7412 89.0385 8.21922C85.607 4.69725 80.8953 2.63273 75.9192 2.4707H74.6539ZM101.225 2.4707C96.2492 2.63273 91.5375 4.69725 88.106 8.21922C84.6745 11.7412 82.798 16.4385 82.881 21.2987C82.964 26.1588 84.9998 30.7925 88.5497 34.2008C92.0995 37.6092 96.879 39.5192 101.858 39.5192C106.837 39.5192 111.616 37.6092 115.166 34.2008C118.716 30.7925 120.752 26.1588 120.835 21.2987C120.918 16.4385 119.041 11.7412 115.61 8.21922C112.178 4.69725 107.467 2.63273 102.491 2.4707H101.225Z" stroke="black" stroke-width="2.88235"/>
</svg>
