<svg width="30" height="33" viewBox="0 0 30 33" fill="none" xmlns="http://www.w3.org/2000/svg">
<path d="M0.588888 0.496237C0.215872 0.880613 0 1.47905 0 2.25405V29.8978C0 30.6728 0.215872 31.2712 0.588888 31.6556L0.680952 31.74L16.4175 16.2556V15.89L0.680952 0.405614L0.588888 0.496237Z" fill="url(#paint0_linear_3440_2815)"/>
<path d="M21.6572 21.4197L16.4175 16.2556V15.89L21.6635 10.7259L21.781 10.7931L27.9937 14.2728C29.7667 15.2603 29.7667 16.8853 27.9937 17.8791L21.781 21.3525L21.6572 21.4197Z" fill="url(#paint1_linear_3440_2815)"/>
<path d="M21.7809 21.3526L16.4174 16.0729L0.588867 31.6557C1.17776 32.2651 2.13807 32.3385 3.23014 31.7292L21.7809 21.3526Z" fill="url(#paint2_linear_3440_2815)"/>
<path d="M21.7809 10.7933L3.23014 0.416753C2.13807 -0.186372 1.17776 -0.112936 0.588867 0.496439L16.4174 16.073L21.7809 10.7933Z" fill="url(#paint3_linear_3440_2815)"/>
<defs>
<linearGradient id="paint0_linear_3440_2815" x1="15.0202" y1="30.1857" x2="-5.95515" y2="8.87735" gradientUnits="userSpaceOnUse">
<stop stop-color="#00A0FF"/>
<stop offset="0.0066" stop-color="#00A1FF"/>
<stop offset="0.2601" stop-color="#00BEFF"/>
<stop offset="0.5122" stop-color="#00D2FF"/>
<stop offset="0.7604" stop-color="#00DFFF"/>
<stop offset="1" stop-color="#00E3FF"/>
</linearGradient>
<linearGradient id="paint1_linear_3440_2815" x1="30.3024" y1="16.0711" x2="-0.423785" y2="16.0711" gradientUnits="userSpaceOnUse">
<stop stop-color="#FFE000"/>
<stop offset="0.4087" stop-color="#FFBD00"/>
<stop offset="0.7754" stop-color="#FFA500"/>
<stop offset="1" stop-color="#FF9C00"/>
</linearGradient>
<linearGradient id="paint2_linear_3440_2815" x1="18.8644" y1="13.2028" x2="-9.57992" y2="-15.6931" gradientUnits="userSpaceOnUse">
<stop stop-color="#FF3A44"/>
<stop offset="1" stop-color="#C31162"/>
</linearGradient>
<linearGradient id="paint3_linear_3440_2815" x1="-3.39551" y1="40.8528" x2="9.30616" y2="27.9496" gradientUnits="userSpaceOnUse">
<stop stop-color="#32A071"/>
<stop offset="0.0685" stop-color="#2DA771"/>
<stop offset="0.4762" stop-color="#15CF74"/>
<stop offset="0.8009" stop-color="#06E775"/>
<stop offset="1" stop-color="#00F076"/>
</linearGradient>
</defs>
</svg>
