<svg width="24" height="24" viewBox="0 0 24 24" fill="none" xmlns="http://www.w3.org/2000/svg">
<path d="M23.9929 12C23.9929 5.37258 18.6219 0 11.9965 0C5.37101 0 0 5.37258 0 12C0 18.6274 5.37101 24 11.9965 24C18.6219 24 23.9929 18.6274 23.9929 12Z" fill="black"/>
<path d="M19.5507 9.5134C19.4563 8.60187 19.2532 7.59422 18.5055 7.06467C17.9263 6.65402 17.1651 6.63883 16.4545 6.63968C14.9523 6.63968 13.4492 6.64221 11.9471 6.64305C10.5022 6.64474 9.05731 6.64558 7.61244 6.64727C7.00886 6.64727 6.42215 6.60089 5.86157 6.86229C5.38022 7.08659 5.00341 7.51327 4.77665 7.98801C4.46222 8.64825 4.39647 9.3962 4.35853 10.1264C4.28857 11.4562 4.29615 12.7894 4.37961 14.1183C4.44115 15.088 4.59709 16.1597 5.3465 16.7778C6.01077 17.3251 6.94817 17.3521 7.80969 17.3529C10.5443 17.3554 13.2798 17.358 16.0153 17.3597C16.366 17.3605 16.7318 17.3538 17.0892 17.315C17.7923 17.2391 18.4624 17.0375 18.9143 16.5164C19.3703 15.9911 19.4875 15.26 19.5566 14.5677C19.7252 12.888 19.7236 11.1923 19.5507 9.5134ZM10.3656 14.3544V9.64495L14.4423 11.9992L10.3656 14.3544Z" fill="white"/>
</svg>
